<svg width="10" height="11" viewBox="0 0 10 11" fill="none" xmlns="http://www.w3.org/2000/svg">
<path d="M9.64069 4.13774L6.6653 3.70531L5.33522 1.00883C5.29889 0.935002 5.23913 0.875236 5.1653 0.838908C4.98014 0.747502 4.75514 0.823674 4.66257 1.00883L3.33249 3.70531L0.357096 4.13774C0.275065 4.14946 0.200065 4.18813 0.142643 4.24672C0.073223 4.31807 0.0349694 4.41407 0.0362879 4.51361C0.0376063 4.61315 0.0783888 4.70809 0.149674 4.77758L2.30241 6.87641L1.79382 9.84008C1.78189 9.90902 1.78952 9.97993 1.81584 10.0448C1.84216 10.1096 1.88611 10.1657 1.94272 10.2068C1.99933 10.248 2.06633 10.2724 2.13612 10.2774C2.20591 10.2823 2.27569 10.2677 2.33756 10.235L4.99889 8.83578L7.66022 10.235C7.73288 10.2737 7.81725 10.2866 7.89811 10.2725C8.10202 10.2373 8.23913 10.044 8.20397 9.84008L7.69538 6.87641L9.84811 4.77758C9.90671 4.72016 9.94538 4.64516 9.9571 4.56313C9.98874 4.35805 9.84577 4.16821 9.64069 4.13774Z" fill="#FFC000"/>
</svg>
